<?xml version="1.0" encoding="UTF-8" standalone="no"?>
<!DOCTYPE svg PUBLIC "-//W3C//DTD SVG 1.1//EN" "http://www.w3.org/Graphics/SVG/1.1/DTD/svg11.dtd">
<svg width="100%" height="100%" viewBox="0 0 600 600" version="1.1" xmlns="http://www.w3.org/2000/svg" xmlns:xlink="http://www.w3.org/1999/xlink" xml:space="preserve" xmlns:serif="http://www.serif.com/" style="fill-rule:evenodd;clip-rule:evenodd;stroke-linejoin:round;stroke-miterlimit:2;">
    <g transform="matrix(6.62501,0,0,2.88549,-1069.68,-682.811)">
        <path d="M194.824,325.241L173.486,325.241L178.82,304.98L189.49,304.98L194.824,325.241Z" style="fill:rgb(33,33,136);"/>
    </g>
    <g transform="matrix(6.64214,0,0,4.89544,-1549.03,-1138.97)">
        <path d="M281.802,239.795L293.555,252.228L270.049,252.228L281.802,239.795Z" style="fill:rgb(33,33,136);"/>
    </g>
    <g transform="matrix(6.24735,0,0,4.60388,-1201.54,-1138.65)">
        <path d="M246.689,280.765L248.163,282.568L245.215,282.568L246.689,280.765Z" style="fill:rgb(33,33,136);"/>
    </g>
    <g transform="matrix(6.24735,0,0,4.60388,-1221.79,-1125.82)">
        <path d="M283.176,356.543L269.04,356.543L269.04,357.477L283.176,357.477L283.176,363.169L263.399,363.169L263.399,342.902L283.176,342.902L283.176,356.543ZM263.399,328.125L283.176,328.125L283.176,342.426L263.399,342.426L263.399,328.125ZM283.176,327.676L263.399,327.676L263.399,320.194L283.176,320.194L283.176,327.676Z" style="fill:rgb(33,33,136);"/>
    </g>
    <g transform="matrix(6.24735,0,0,4.60388,-1221.79,-1125.82)">
        <path d="M231.352,313.797L211.613,313.797L211.613,314.539L231.356,314.539L231.499,342.426L214.485,342.426L214.485,342.902L231.501,342.902L231.606,363.365L208.049,363.485L207.728,300.864L231.285,300.743L231.352,313.797Z" style="fill:rgb(33,33,136);"/>
    </g>
    <g transform="matrix(6.24735,0,0,4.60388,-1221.79,-1125.82)">
        <path d="M263.465,314.539L282.746,314.539L282.727,319.309L263.446,319.309L263.465,314.539ZM263.533,297C269.947,300.351 276.361,303.702 282.775,307.053L282.749,313.797L263.468,313.797L263.533,297Z" style="fill:rgb(33,33,136);"/>
    </g>
    <g transform="matrix(6.24735,0,0,4.60388,-1221.79,-1125.82)">
        <path d="M259.028,363.517L235.256,363.517L235.256,342.902L259.028,342.902L259.028,363.517ZM259.028,327.676L242.533,327.676L242.533,328.125L259.028,328.125L259.028,342.426L235.256,342.426L235.256,314.539L259.028,314.539L259.028,327.676ZM259.028,293.262L240.523,293.262L240.523,294.882L259.028,294.882L259.028,313.797L235.256,313.797L235.256,266.563L259.028,266.563L259.028,293.262Z" style="fill:rgb(33,33,136);"/>
    </g>
</svg>
